# xmcd
# 
# Track frame offsets:
#     150
#     21219
#     44100
#     69172
#     92805
#     110577
#     132033
#     150388
#     170742
#     192545
#     210862
#     230035
# 
# Disc length: 3378
# 
# Revision: 1
# Processed by: cddbd v1.5.2PL0 Copyright (c) Steve Scherf et al.
# Submitted via: BonkEnc v1.0.6
# 
DISCID=a30d300c
DTITLE=蕭煌奇 - 真情歌
DYEAR=2007
DGENRE=Pop
TTITLE0=愛這首歌
TTITLE1=甲我跳舞好否
TTITLE2=唱歌乎恁聽
TTITLE3=國民學校
TTITLE4=好啦好啦
TTITLE5=你置叨位
TTITLE6=袂做憨人
TTITLE7=小姐免歹勢
TTITLE8=返來恁身邊
TTITLE9=板橋純情曲
TTITLE10=愛你一世人
TTITLE11=阿嬤的話
EXTD=
EXTT0=
EXTT1=
EXTT2=
EXTT3=
EXTT4=
EXTT5=
EXTT6=
EXTT7=
EXTT8=
EXTT9=
EXTT10=
EXTT11=
PLAYORDER=
